# Blender 4.1.1
# www.blender.org
mtllib capsule.mtl
o Сфера
v 0.000000 -1.195090 -0.980785
v 0.000000 -1.555570 -0.831470
v 0.191342 -1.195090 -0.961940
v 0.180240 -1.382684 -0.906127
v 0.162212 -1.555570 -0.815493
v 0.137950 -1.707107 -0.693520
v 0.108386 -1.831470 -0.544895
v 0.074658 -1.923880 -0.375330
v 0.038060 -1.980785 -0.191342
v 0.375330 -1.195090 -0.906127
v 0.353553 -1.382684 -0.853553
v 0.318190 -1.555570 -0.768178
v 0.270598 -1.707107 -0.653281
v 0.212608 -1.831470 -0.513280
v 0.146447 -1.923880 -0.353553
v 0.074658 -1.980785 -0.180240
v 0.544895 -1.195090 -0.815493
v 0.513280 -1.382684 -0.768178
v 0.461940 -1.555570 -0.691342
v 0.392847 -1.707107 -0.587938
v 0.308658 -1.831470 -0.461940
v 0.212608 -1.923880 -0.318190
v 0.108386 -1.980785 -0.162212
v 0.693520 -1.195090 -0.693520
v 0.653281 -1.382684 -0.653281
v 0.587938 -1.555570 -0.587938
v 0.500000 -1.707107 -0.500000
v 0.392847 -1.831470 -0.392847
v 0.270598 -1.923880 -0.270598
v 0.137950 -1.980785 -0.137950
v 0.815493 -1.195090 -0.544895
v 0.768178 -1.382684 -0.513280
v 0.691342 -1.555570 -0.461940
v 0.587938 -1.707107 -0.392847
v 0.461940 -1.831470 -0.308658
v 0.318190 -1.923880 -0.212608
v 0.162212 -1.980785 -0.108386
v 0.906127 -1.195090 -0.375330
v 0.853553 -1.382684 -0.353553
v 0.768178 -1.555570 -0.318190
v 0.653281 -1.707107 -0.270598
v 0.513280 -1.831470 -0.212607
v 0.353553 -1.923880 -0.146447
v 0.180240 -1.980785 -0.074658
v 0.961940 -1.195090 -0.191342
v 0.906127 -1.382684 -0.180240
v 0.815493 -1.555570 -0.162212
v 0.693520 -1.707107 -0.137950
v 0.544895 -1.831470 -0.108386
v 0.375330 -1.923880 -0.074658
v 0.191342 -1.980785 -0.038060
v 0.980785 -1.195090 0.000000
v 0.923879 -1.382684 -0.000000
v 0.831469 -1.555570 0.000000
v 0.707107 -1.707107 -0.000000
v 0.555570 -1.831470 0.000000
v 0.382683 -1.923880 0.000000
v 0.195090 -1.980785 0.000000
v 0.961940 -1.195090 0.191342
v 0.906127 -1.382684 0.180240
v 0.815493 -1.555570 0.162212
v 0.693520 -1.707107 0.137950
v 0.544895 -1.831470 0.108386
v 0.375330 -1.923880 0.074658
v 0.191342 -1.980785 0.038060
v 0.906127 -1.195090 0.375330
v 0.853553 -1.382684 0.353553
v 0.768178 -1.555570 0.318190
v 0.653281 -1.707107 0.270598
v 0.513280 -1.831470 0.212608
v 0.353553 -1.923880 0.146447
v 0.180240 -1.980785 0.074658
v 0.815493 -1.195090 0.544895
v 0.768178 -1.382684 0.513280
v 0.691341 -1.555570 0.461940
v 0.587938 -1.707107 0.392847
v 0.461940 -1.831470 0.308658
v 0.318190 -1.923880 0.212608
v 0.162212 -1.980785 0.108386
v 0.693520 -1.195090 0.693520
v 0.653281 -1.382684 0.653281
v 0.587938 -1.555570 0.587938
v 0.500000 -1.707107 0.500000
v 0.392847 -1.831470 0.392847
v 0.270598 -1.923880 0.270598
v 0.137950 -1.980785 0.137950
v 0.544895 -1.195090 0.815493
v 0.513280 -1.382684 0.768178
v 0.461940 -1.555570 0.691342
v 0.392847 -1.707107 0.587938
v 0.308658 -1.831470 0.461940
v 0.212607 -1.923880 0.318190
v 0.108386 -1.980785 0.162212
v 0.375330 -1.195090 0.906127
v 0.353553 -1.382684 0.853553
v 0.318189 -1.555570 0.768178
v 0.270598 -1.707107 0.653281
v 0.212607 -1.831470 0.513280
v 0.146447 -1.923880 0.353553
v 0.074658 -1.980785 0.180240
v 0.191342 -1.195090 0.961939
v 0.180240 -1.382684 0.906127
v 0.162212 -1.555570 0.815493
v 0.137950 -1.707107 0.693520
v 0.108386 -1.831470 0.544895
v 0.074658 -1.923880 0.375330
v 0.038060 -1.980785 0.191342
v -0.000000 -1.195090 0.980785
v 0.000000 -1.382684 0.923879
v -0.000000 -1.555570 0.831469
v -0.000000 -1.707107 0.707107
v -0.000000 -1.831470 0.555570
v -0.000000 -1.923880 0.382683
v -0.000000 -1.980785 0.195090
v -0.191342 -1.195090 0.961939
v -0.180240 -1.382684 0.906127
v -0.162212 -1.555570 0.815493
v -0.137950 -1.707107 0.693520
v -0.108386 -1.831470 0.544895
v -0.074658 -1.923880 0.375330
v -0.038060 -1.980785 0.191342
v -0.375330 -1.195090 0.906127
v -0.353553 -1.382684 0.853553
v -0.318190 -1.555570 0.768177
v -0.270598 -1.707107 0.653281
v -0.212608 -1.831470 0.513280
v -0.146447 -1.923880 0.353553
v -0.074658 -1.980785 0.180240
v -0.544895 -1.195090 0.815493
v -0.513280 -1.382684 0.768178
v -0.461940 -1.555570 0.691341
v -0.392847 -1.707107 0.587938
v -0.308658 -1.831470 0.461939
v -0.212608 -1.923880 0.318190
v -0.108386 -1.980785 0.162212
v -0.693520 -1.195090 0.693520
v -0.653281 -1.382684 0.653281
v -0.587938 -1.555570 0.587937
v -0.500000 -1.707107 0.500000
v -0.392847 -1.831470 0.392847
v -0.270598 -1.923880 0.270598
v -0.137950 -1.980785 0.137950
v 0.000000 -2.000000 0.000000
v -0.815493 -1.195090 0.544895
v -0.768177 -1.382684 0.513280
v -0.691341 -1.555570 0.461939
v -0.587938 -1.707107 0.392847
v -0.461940 -1.831470 0.308658
v -0.318190 -1.923880 0.212607
v -0.162212 -1.980785 0.108386
v -0.906127 -1.195090 0.375330
v -0.853553 -1.382684 0.353553
v -0.768177 -1.555570 0.318189
v -0.653281 -1.707107 0.270598
v -0.513280 -1.831470 0.212607
v -0.353553 -1.923880 0.146447
v -0.180240 -1.980785 0.074658
v -0.961939 -1.195090 0.191341
v -0.906127 -1.382684 0.180240
v -0.815493 -1.555570 0.162211
v -0.693520 -1.707107 0.137950
v -0.544895 -1.831470 0.108386
v -0.375330 -1.923880 0.074658
v -0.191342 -1.980785 0.038060
v -0.980785 -1.195090 -0.000000
v -0.923879 -1.382684 -0.000000
v -0.831469 -1.555570 -0.000000
v -0.707107 -1.707107 -0.000000
v -0.555570 -1.831470 -0.000000
v -0.382683 -1.923880 -0.000000
v -0.195090 -1.980785 -0.000000
v -0.961939 -1.195090 -0.191342
v -0.906127 -1.382684 -0.180240
v -0.815493 -1.555570 -0.162212
v -0.693520 -1.707107 -0.137950
v -0.544895 -1.831470 -0.108386
v -0.375330 -1.923880 -0.074658
v -0.191342 -1.980785 -0.038060
v -0.906127 -1.195090 -0.375330
v -0.853553 -1.382684 -0.353553
v -0.768177 -1.555570 -0.318190
v -0.653281 -1.707107 -0.270598
v -0.513279 -1.831470 -0.212607
v -0.353553 -1.923880 -0.146447
v -0.180240 -1.980785 -0.074658
v -0.815493 -1.195090 -0.544895
v -0.768177 -1.382684 -0.513280
v -0.691341 -1.555570 -0.461940
v -0.587938 -1.707107 -0.392847
v -0.461939 -1.831470 -0.308658
v -0.318189 -1.923880 -0.212607
v -0.162212 -1.980785 -0.108386
v -0.693519 -1.195090 -0.693520
v -0.653281 -1.382684 -0.653281
v -0.587937 -1.555570 -0.587938
v -0.500000 -1.707107 -0.500000
v -0.392847 -1.831470 -0.392847
v -0.270598 -1.923880 -0.270598
v -0.137950 -1.980785 -0.137950
v -0.544895 -1.195090 -0.815493
v -0.513280 -1.382684 -0.768177
v -0.461939 -1.555570 -0.691341
v -0.392847 -1.707107 -0.587938
v -0.308658 -1.831470 -0.461939
v -0.212607 -1.923880 -0.318190
v -0.108386 -1.980785 -0.162212
v -0.375330 -1.195090 -0.906127
v -0.353553 -1.382684 -0.853553
v -0.318189 -1.555570 -0.768177
v -0.270598 -1.707107 -0.653281
v -0.212607 -1.831470 -0.513279
v -0.146446 -1.923880 -0.353553
v -0.074658 -1.980785 -0.180240
v -0.191341 -1.195090 -0.961939
v -0.180240 -1.382684 -0.906127
v -0.162211 -1.555570 -0.815493
v -0.137950 -1.707107 -0.693520
v -0.108386 -1.831470 -0.544895
v -0.074658 -1.923880 -0.375330
v -0.038060 -1.980785 -0.191342
v 0.000000 -1.382684 -0.923879
v 0.000000 -1.707107 -0.707107
v 0.000000 -1.831470 -0.555570
v 0.000000 -1.923880 -0.382683
v 0.000000 -1.980785 -0.195090
v 0.000000 1.831470 -0.555570
v 0.000000 1.555570 -0.831470
v 0.000000 1.195090 -0.980785
v 0.038060 1.980785 -0.191342
v 0.074658 1.923880 -0.375330
v 0.108386 1.831470 -0.544895
v 0.137950 1.707107 -0.693520
v 0.162212 1.555570 -0.815493
v 0.180240 1.382684 -0.906127
v 0.191342 1.195090 -0.961940
v 0.074658 1.980785 -0.180240
v 0.146447 1.923880 -0.353553
v 0.212608 1.831470 -0.513280
v 0.270598 1.707107 -0.653281
v 0.318190 1.555570 -0.768178
v 0.353553 1.382684 -0.853553
v 0.375330 1.195090 -0.906127
v 0.108386 1.980785 -0.162212
v 0.212608 1.923880 -0.318190
v 0.308658 1.831470 -0.461940
v 0.392847 1.707107 -0.587938
v 0.461940 1.555570 -0.691342
v 0.513280 1.382684 -0.768178
v 0.544895 1.195090 -0.815493
v 0.137950 1.980785 -0.137950
v 0.270598 1.923880 -0.270598
v 0.392847 1.831470 -0.392847
v 0.500000 1.707107 -0.500000
v 0.587938 1.555570 -0.587938
v 0.653281 1.382684 -0.653281
v 0.693520 1.195090 -0.693520
v 0.162212 1.980785 -0.108386
v 0.318190 1.923880 -0.212608
v 0.461940 1.831470 -0.308658
v 0.587938 1.707107 -0.392847
v 0.691342 1.555570 -0.461940
v 0.768178 1.382684 -0.513280
v 0.815493 1.195090 -0.544895
v 0.000000 2.000000 0.000000
v 0.180240 1.980785 -0.074658
v 0.353553 1.923880 -0.146447
v 0.513280 1.831470 -0.212607
v 0.653281 1.707107 -0.270598
v 0.768178 1.555570 -0.318190
v 0.853553 1.382684 -0.353553
v 0.906127 1.195090 -0.375330
v 0.191342 1.980785 -0.038060
v 0.375330 1.923880 -0.074658
v 0.544895 1.831470 -0.108386
v 0.693520 1.707107 -0.137950
v 0.815493 1.555570 -0.162212
v 0.906127 1.382684 -0.180240
v 0.961940 1.195090 -0.191342
v 0.195090 1.980785 0.000000
v 0.382683 1.923880 0.000000
v 0.555570 1.831470 0.000000
v 0.707107 1.707107 -0.000000
v 0.831469 1.555570 0.000000
v 0.923879 1.382684 -0.000000
v 0.980785 1.195090 0.000000
v 0.191342 1.980785 0.038060
v 0.375330 1.923880 0.074658
v 0.544895 1.831470 0.108386
v 0.693520 1.707107 0.137950
v 0.815493 1.555570 0.162212
v 0.906127 1.382684 0.180240
v 0.961940 1.195090 0.191342
v 0.180240 1.980785 0.074658
v 0.353553 1.923880 0.146447
v 0.513280 1.831470 0.212608
v 0.653281 1.707107 0.270598
v 0.768178 1.555570 0.318190
v 0.853553 1.382684 0.353553
v 0.906127 1.195090 0.375330
v 0.162212 1.980785 0.108386
v 0.318190 1.923880 0.212608
v 0.461940 1.831470 0.308658
v 0.587938 1.707107 0.392847
v 0.691341 1.555570 0.461940
v 0.768178 1.382684 0.513280
v 0.815493 1.195090 0.544895
v 0.137950 1.980785 0.137950
v 0.270598 1.923880 0.270598
v 0.392847 1.831470 0.392847
v 0.500000 1.707107 0.500000
v 0.587938 1.555570 0.587938
v 0.653281 1.382684 0.653281
v 0.693520 1.195090 0.693520
v 0.108386 1.980785 0.162212
v 0.212607 1.923880 0.318190
v 0.308658 1.831470 0.461940
v 0.392847 1.707107 0.587938
v 0.461940 1.555570 0.691342
v 0.513280 1.382684 0.768178
v 0.544895 1.195090 0.815493
v 0.074658 1.980785 0.180240
v 0.146447 1.923880 0.353553
v 0.212607 1.831470 0.513280
v 0.270598 1.707107 0.653281
v 0.318189 1.555570 0.768178
v 0.353553 1.382684 0.853553
v 0.375330 1.195090 0.906127
v 0.038060 1.980785 0.191342
v 0.074658 1.923880 0.375330
v 0.108386 1.831470 0.544895
v 0.137950 1.707107 0.693520
v 0.162212 1.555570 0.815493
v 0.180240 1.382684 0.906127
v 0.191342 1.195090 0.961939
v -0.000000 1.980785 0.195090
v -0.000000 1.923880 0.382683
v -0.000000 1.831470 0.555570
v -0.000000 1.707107 0.707107
v -0.000000 1.555570 0.831469
v 0.000000 1.382684 0.923879
v -0.000000 1.195090 0.980785
v -0.038060 1.980785 0.191342
v -0.074658 1.923880 0.375330
v -0.108386 1.831470 0.544895
v -0.137950 1.707107 0.693520
v -0.162212 1.555570 0.815493
v -0.180240 1.382684 0.906127
v -0.191342 1.195090 0.961939
v -0.074658 1.980785 0.180240
v -0.146447 1.923880 0.353553
v -0.212608 1.831470 0.513280
v -0.270598 1.707107 0.653281
v -0.318190 1.555570 0.768177
v -0.353553 1.382684 0.853553
v -0.375330 1.195090 0.906127
v -0.108386 1.980785 0.162212
v -0.212608 1.923880 0.318190
v -0.308658 1.831470 0.461939
v -0.392847 1.707107 0.587938
v -0.461940 1.555570 0.691341
v -0.513280 1.382684 0.768178
v -0.544895 1.195090 0.815493
v -0.137950 1.980785 0.137950
v -0.270598 1.923880 0.270598
v -0.392847 1.831470 0.392847
v -0.500000 1.707107 0.500000
v -0.587938 1.555570 0.587937
v -0.653281 1.382684 0.653281
v -0.693520 1.195090 0.693520
v -0.162212 1.980785 0.108386
v -0.318190 1.923880 0.212607
v -0.461940 1.831470 0.308658
v -0.587938 1.707107 0.392847
v -0.691341 1.555570 0.461939
v -0.768177 1.382684 0.513280
v -0.815493 1.195090 0.544895
v -0.180240 1.980785 0.074658
v -0.353553 1.923880 0.146447
v -0.513280 1.831470 0.212607
v -0.653281 1.707107 0.270598
v -0.768177 1.555570 0.318189
v -0.853553 1.382684 0.353553
v -0.906127 1.195090 0.375330
v -0.191342 1.980785 0.038060
v -0.375330 1.923880 0.074658
v -0.544895 1.831470 0.108386
v -0.693520 1.707107 0.137950
v -0.815493 1.555570 0.162211
v -0.906127 1.382684 0.180240
v -0.961939 1.195090 0.191341
v -0.195090 1.980785 -0.000000
v -0.382683 1.923880 -0.000000
v -0.555570 1.831470 -0.000000
v -0.707107 1.707107 -0.000000
v -0.831469 1.555570 -0.000000
v -0.923879 1.382684 -0.000000
v -0.980785 1.195090 -0.000000
v -0.191342 1.980785 -0.038060
v -0.375330 1.923880 -0.074658
v -0.544895 1.831470 -0.108386
v -0.693520 1.707107 -0.137950
v -0.815493 1.555570 -0.162212
v -0.906127 1.382684 -0.180240
v -0.961939 1.195090 -0.191342
v -0.180240 1.980785 -0.074658
v -0.353553 1.923880 -0.146447
v -0.513279 1.831470 -0.212607
v -0.653281 1.707107 -0.270598
v -0.768177 1.555570 -0.318190
v -0.853553 1.382684 -0.353553
v -0.906127 1.195090 -0.375330
v -0.162212 1.980785 -0.108386
v -0.318189 1.923880 -0.212607
v -0.461939 1.831470 -0.308658
v -0.587938 1.707107 -0.392847
v -0.691341 1.555570 -0.461940
v -0.768177 1.382684 -0.513280
v -0.815493 1.195090 -0.544895
v -0.137950 1.980785 -0.137950
v -0.270598 1.923880 -0.270598
v -0.392847 1.831470 -0.392847
v -0.500000 1.707107 -0.500000
v -0.587937 1.555570 -0.587938
v -0.653281 1.382684 -0.653281
v -0.693519 1.195090 -0.693520
v -0.108386 1.980785 -0.162212
v -0.212607 1.923880 -0.318190
v -0.308658 1.831470 -0.461939
v -0.392847 1.707107 -0.587938
v -0.461939 1.555570 -0.691341
v -0.513280 1.382684 -0.768177
v -0.544895 1.195090 -0.815493
v -0.074658 1.980785 -0.180240
v -0.146446 1.923880 -0.353553
v -0.212607 1.831470 -0.513279
v -0.270598 1.707107 -0.653281
v -0.318189 1.555570 -0.768177
v -0.353553 1.382684 -0.853553
v -0.375330 1.195090 -0.906127
v -0.038060 1.980785 -0.191342
v -0.074658 1.923880 -0.375330
v -0.108386 1.831470 -0.544895
v -0.137950 1.707107 -0.693520
v -0.162211 1.555570 -0.815493
v -0.180240 1.382684 -0.906127
v -0.191341 1.195090 -0.961939
v 0.000000 1.980785 -0.195090
v 0.000000 1.923880 -0.382683
v 0.000000 1.707107 -0.707107
v 0.000000 1.382684 -0.923879
vn -0.0000 -0.1454 -0.9894
vn -0.0000 -0.5528 -0.8333
vn 0.1930 -0.1454 -0.9704
vn 0.1804 -0.3805 -0.9070
vn 0.1626 -0.5528 -0.8173
vn 0.1385 -0.7041 -0.6965
vn 0.1092 -0.8286 -0.5490
vn 0.0757 -0.9217 -0.3804
vn 0.0392 -0.9796 -0.1971
vn 0.3786 -0.1454 -0.9141
vn 0.3539 -0.3805 -0.8544
vn 0.3189 -0.5528 -0.7699
vn 0.2718 -0.7041 -0.6561
vn 0.2142 -0.8286 -0.5172
vn 0.1484 -0.9217 -0.3584
vn 0.0769 -0.9796 -0.1857
vn 0.5497 -0.1454 -0.8226
vn 0.5138 -0.3805 -0.7689
vn 0.4630 -0.5528 -0.6929
vn 0.3945 -0.7041 -0.5905
vn 0.3110 -0.8286 -0.4654
vn 0.2155 -0.9217 -0.3225
vn 0.1117 -0.9796 -0.1671
vn 0.6996 -0.1454 -0.6996
vn 0.6539 -0.3805 -0.6539
vn 0.5893 -0.5528 -0.5893
vn 0.5021 -0.7041 -0.5021
vn 0.3958 -0.8286 -0.3958
vn 0.2743 -0.9217 -0.2743
vn 0.1421 -0.9796 -0.1421
vn 0.8226 -0.1454 -0.5497
vn 0.7689 -0.3805 -0.5138
vn 0.6929 -0.5528 -0.4630
vn 0.5905 -0.7041 -0.3945
vn 0.4654 -0.8286 -0.3110
vn 0.3225 -0.9217 -0.2155
vn 0.1671 -0.9796 -0.1117
vn 0.9141 -0.1454 -0.3786
vn 0.8544 -0.3805 -0.3539
vn 0.7699 -0.5528 -0.3189
vn 0.6561 -0.7041 -0.2718
vn 0.5172 -0.8286 -0.2142
vn 0.3584 -0.9217 -0.1484
vn 0.1857 -0.9796 -0.0769
vn 0.9704 -0.1454 -0.1930
vn 0.9070 -0.3805 -0.1804
vn 0.8173 -0.5528 -0.1626
vn 0.6965 -0.7041 -0.1385
vn 0.5490 -0.8286 -0.1092
vn 0.3804 -0.9217 -0.0757
vn 0.1971 -0.9796 -0.0392
vn 0.9894 -0.1454 -0.0000
vn 0.9248 -0.3805 -0.0000
vn 0.8333 -0.5528 -0.0000
vn 0.7101 -0.7041 -0.0000
vn 0.5598 -0.8286 -0.0000
vn 0.3879 -0.9217 -0.0000
vn 0.2010 -0.9796 -0.0000
vn 0.9704 -0.1454 0.1930
vn 0.9070 -0.3805 0.1804
vn 0.8173 -0.5528 0.1626
vn 0.6965 -0.7041 0.1385
vn 0.5490 -0.8286 0.1092
vn 0.3804 -0.9217 0.0757
vn 0.1971 -0.9796 0.0392
vn 0.9141 -0.1454 0.3786
vn 0.8544 -0.3805 0.3539
vn 0.7699 -0.5528 0.3189
vn 0.6561 -0.7041 0.2718
vn 0.5172 -0.8286 0.2142
vn 0.3584 -0.9217 0.1484
vn 0.1857 -0.9796 0.0769
vn 0.8226 -0.1454 0.5497
vn 0.7689 -0.3805 0.5138
vn 0.6929 -0.5528 0.4630
vn 0.5905 -0.7041 0.3945
vn 0.4654 -0.8286 0.3110
vn 0.3225 -0.9217 0.2155
vn 0.1671 -0.9796 0.1117
vn 0.6996 -0.1454 0.6996
vn 0.6539 -0.3805 0.6539
vn 0.5893 -0.5528 0.5893
vn 0.5021 -0.7041 0.5021
vn 0.3958 -0.8286 0.3958
vn 0.2743 -0.9217 0.2743
vn 0.1421 -0.9796 0.1421
vn 0.5497 -0.1454 0.8226
vn 0.5138 -0.3805 0.7689
vn 0.4630 -0.5528 0.6929
vn 0.3945 -0.7041 0.5905
vn 0.3110 -0.8286 0.4654
vn 0.2155 -0.9217 0.3225
vn 0.1117 -0.9796 0.1671
vn 0.3786 -0.1454 0.9141
vn 0.3539 -0.3805 0.8544
vn 0.3189 -0.5528 0.7699
vn 0.2718 -0.7041 0.6561
vn 0.2142 -0.8286 0.5172
vn 0.1484 -0.9217 0.3584
vn 0.0769 -0.9796 0.1857
vn 0.1930 -0.1454 0.9704
vn 0.1804 -0.3805 0.9070
vn 0.1626 -0.5528 0.8173
vn 0.1385 -0.7041 0.6965
vn 0.1092 -0.8286 0.5490
vn 0.0757 -0.9217 0.3804
vn 0.0392 -0.9796 0.1971
vn -0.0000 -0.1454 0.9894
vn -0.0000 -0.3805 0.9248
vn -0.0000 -0.5528 0.8333
vn -0.0000 -0.7041 0.7101
vn -0.0000 -0.8286 0.5598
vn -0.0000 -0.9217 0.3879
vn -0.0000 -0.9796 0.2010
vn -0.1930 -0.1454 0.9704
vn -0.1804 -0.3805 0.9070
vn -0.1626 -0.5528 0.8173
vn -0.1385 -0.7041 0.6965
vn -0.1092 -0.8286 0.5490
vn -0.0757 -0.9217 0.3804
vn -0.0392 -0.9796 0.1971
vn -0.3786 -0.1454 0.9141
vn -0.3539 -0.3805 0.8544
vn -0.3189 -0.5528 0.7699
vn -0.2718 -0.7041 0.6561
vn -0.2142 -0.8286 0.5172
vn -0.1484 -0.9217 0.3584
vn -0.0769 -0.9796 0.1857
vn -0.5497 -0.1454 0.8226
vn -0.5138 -0.3805 0.7689
vn -0.4630 -0.5528 0.6929
vn -0.3945 -0.7041 0.5905
vn -0.3110 -0.8286 0.4654
vn -0.2155 -0.9217 0.3225
vn -0.1117 -0.9796 0.1671
vn -0.6996 -0.1454 0.6996
vn -0.6539 -0.3805 0.6539
vn -0.5893 -0.5528 0.5893
vn -0.5021 -0.7041 0.5021
vn -0.3958 -0.8286 0.3958
vn -0.2743 -0.9217 0.2743
vn -0.1421 -0.9796 0.1421
vn -0.0000 -1.0000 -0.0000
vn -0.8226 -0.1454 0.5497
vn -0.7689 -0.3805 0.5138
vn -0.6929 -0.5528 0.4630
vn -0.5905 -0.7041 0.3945
vn -0.4654 -0.8286 0.3110
vn -0.3225 -0.9217 0.2155
vn -0.1671 -0.9796 0.1117
vn -0.9141 -0.1454 0.3786
vn -0.8544 -0.3805 0.3539
vn -0.7699 -0.5528 0.3189
vn -0.6561 -0.7041 0.2718
vn -0.5172 -0.8286 0.2142
vn -0.3584 -0.9217 0.1484
vn -0.1857 -0.9796 0.0769
vn -0.9704 -0.1454 0.1930
vn -0.9070 -0.3805 0.1804
vn -0.8173 -0.5528 0.1626
vn -0.6965 -0.7041 0.1385
vn -0.5490 -0.8286 0.1092
vn -0.3804 -0.9217 0.0757
vn -0.1971 -0.9796 0.0392
vn -0.9894 -0.1454 -0.0000
vn -0.9248 -0.3805 -0.0000
vn -0.8333 -0.5528 -0.0000
vn -0.7101 -0.7041 -0.0000
vn -0.5598 -0.8286 -0.0000
vn -0.3879 -0.9217 -0.0000
vn -0.2010 -0.9796 -0.0000
vn -0.9704 -0.1454 -0.1930
vn -0.9070 -0.3805 -0.1804
vn -0.8173 -0.5528 -0.1626
vn -0.6965 -0.7041 -0.1385
vn -0.5490 -0.8286 -0.1092
vn -0.3804 -0.9217 -0.0757
vn -0.1971 -0.9796 -0.0392
vn -0.9141 -0.1454 -0.3786
vn -0.8544 -0.3805 -0.3539
vn -0.7699 -0.5528 -0.3189
vn -0.6561 -0.7041 -0.2718
vn -0.5172 -0.8286 -0.2142
vn -0.3584 -0.9217 -0.1484
vn -0.1857 -0.9796 -0.0769
vn -0.8226 -0.1454 -0.5497
vn -0.7689 -0.3805 -0.5138
vn -0.6929 -0.5528 -0.4630
vn -0.5905 -0.7041 -0.3945
vn -0.4654 -0.8286 -0.3110
vn -0.3225 -0.9217 -0.2155
vn -0.1671 -0.9796 -0.1117
vn -0.6996 -0.1454 -0.6996
vn -0.6539 -0.3805 -0.6539
vn -0.5893 -0.5528 -0.5893
vn -0.5021 -0.7041 -0.5021
vn -0.3958 -0.8286 -0.3958
vn -0.2743 -0.9217 -0.2743
vn -0.1421 -0.9796 -0.1421
vn -0.5497 -0.1454 -0.8226
vn -0.5138 -0.3805 -0.7689
vn -0.4630 -0.5528 -0.6929
vn -0.3945 -0.7041 -0.5905
vn -0.3110 -0.8286 -0.4654
vn -0.2155 -0.9217 -0.3225
vn -0.1117 -0.9796 -0.1671
vn -0.3786 -0.1454 -0.9141
vn -0.3539 -0.3805 -0.8544
vn -0.3189 -0.5528 -0.7699
vn -0.2718 -0.7041 -0.6561
vn -0.2142 -0.8286 -0.5172
vn -0.1484 -0.9217 -0.3584
vn -0.0769 -0.9796 -0.1857
vn -0.1930 -0.1454 -0.9704
vn -0.1804 -0.3805 -0.9070
vn -0.1626 -0.5528 -0.8173
vn -0.1385 -0.7041 -0.6965
vn -0.1092 -0.8286 -0.5490
vn -0.0757 -0.9217 -0.3804
vn -0.0392 -0.9796 -0.1971
vn -0.0000 -0.3805 -0.9248
vn -0.0000 -0.7041 -0.7101
vn -0.0000 -0.8286 -0.5598
vn -0.0000 -0.9217 -0.3879
vn -0.0000 -0.9796 -0.2010
vn -0.0000 0.8286 -0.5598
vn -0.0000 0.5528 -0.8333
vn -0.0000 0.1454 -0.9894
vn 0.0392 0.9796 -0.1971
vn 0.0757 0.9217 -0.3804
vn 0.1092 0.8286 -0.5490
vn 0.1385 0.7041 -0.6965
vn 0.1626 0.5528 -0.8173
vn 0.1804 0.3805 -0.9070
vn 0.1930 0.1454 -0.9704
vn 0.0769 0.9796 -0.1857
vn 0.1484 0.9217 -0.3584
vn 0.2142 0.8286 -0.5172
vn 0.2718 0.7041 -0.6561
vn 0.3189 0.5528 -0.7699
vn 0.3539 0.3805 -0.8544
vn 0.3786 0.1454 -0.9141
vn 0.1117 0.9796 -0.1671
vn 0.2155 0.9217 -0.3225
vn 0.3110 0.8286 -0.4654
vn 0.3945 0.7041 -0.5905
vn 0.4630 0.5528 -0.6929
vn 0.5138 0.3805 -0.7689
vn 0.5497 0.1454 -0.8226
vn 0.1421 0.9796 -0.1421
vn 0.2743 0.9217 -0.2743
vn 0.3958 0.8286 -0.3958
vn 0.5021 0.7041 -0.5021
vn 0.5893 0.5528 -0.5893
vn 0.6539 0.3805 -0.6539
vn 0.6996 0.1454 -0.6996
vn 0.1671 0.9796 -0.1117
vn 0.3225 0.9217 -0.2155
vn 0.4654 0.8286 -0.3110
vn 0.5905 0.7041 -0.3945
vn 0.6929 0.5528 -0.4630
vn 0.7689 0.3805 -0.5138
vn 0.8226 0.1454 -0.5497
vn -0.0000 1.0000 -0.0000
vn 0.1857 0.9796 -0.0769
vn 0.3584 0.9217 -0.1484
vn 0.5172 0.8286 -0.2142
vn 0.6561 0.7041 -0.2718
vn 0.7699 0.5528 -0.3189
vn 0.8544 0.3805 -0.3539
vn 0.9141 0.1454 -0.3786
vn 0.1971 0.9796 -0.0392
vn 0.3804 0.9217 -0.0757
vn 0.5490 0.8286 -0.1092
vn 0.6965 0.7041 -0.1385
vn 0.8173 0.5528 -0.1626
vn 0.9070 0.3805 -0.1804
vn 0.9704 0.1454 -0.1930
vn 0.2010 0.9796 -0.0000
vn 0.3879 0.9217 -0.0000
vn 0.5598 0.8286 -0.0000
vn 0.7101 0.7041 -0.0000
vn 0.8333 0.5528 -0.0000
vn 0.9248 0.3805 -0.0000
vn 0.9894 0.1454 -0.0000
vn 0.1971 0.9796 0.0392
vn 0.3804 0.9217 0.0757
vn 0.5490 0.8286 0.1092
vn 0.6965 0.7041 0.1385
vn 0.8173 0.5528 0.1626
vn 0.9070 0.3805 0.1804
vn 0.9704 0.1454 0.1930
vn 0.1857 0.9796 0.0769
vn 0.3584 0.9217 0.1484
vn 0.5172 0.8286 0.2142
vn 0.6561 0.7041 0.2718
vn 0.7699 0.5528 0.3189
vn 0.8544 0.3805 0.3539
vn 0.9141 0.1454 0.3786
vn 0.1671 0.9796 0.1117
vn 0.3225 0.9217 0.2155
vn 0.4654 0.8286 0.3110
vn 0.5905 0.7041 0.3945
vn 0.6929 0.5528 0.4630
vn 0.7689 0.3805 0.5138
vn 0.8226 0.1454 0.5497
vn 0.1421 0.9796 0.1421
vn 0.2743 0.9217 0.2743
vn 0.3958 0.8286 0.3958
vn 0.5021 0.7041 0.5021
vn 0.5893 0.5528 0.5893
vn 0.6539 0.3805 0.6539
vn 0.6996 0.1454 0.6996
vn 0.1117 0.9796 0.1671
vn 0.2155 0.9217 0.3225
vn 0.3110 0.8286 0.4654
vn 0.3945 0.7041 0.5905
vn 0.4630 0.5528 0.6929
vn 0.5138 0.3805 0.7689
vn 0.5497 0.1454 0.8226
vn 0.0769 0.9796 0.1857
vn 0.1484 0.9217 0.3584
vn 0.2142 0.8286 0.5172
vn 0.2718 0.7041 0.6561
vn 0.3189 0.5528 0.7699
vn 0.3539 0.3805 0.8544
vn 0.3786 0.1454 0.9141
vn 0.0392 0.9796 0.1971
vn 0.0757 0.9217 0.3804
vn 0.1092 0.8286 0.5490
vn 0.1385 0.7041 0.6965
vn 0.1626 0.5528 0.8173
vn 0.1804 0.3805 0.9070
vn 0.1930 0.1454 0.9704
vn -0.0000 0.9796 0.2010
vn -0.0000 0.9217 0.3879
vn -0.0000 0.8286 0.5598
vn -0.0000 0.7041 0.7101
vn -0.0000 0.5528 0.8333
vn -0.0000 0.3805 0.9248
vn -0.0000 0.1454 0.9894
vn -0.0392 0.9796 0.1971
vn -0.0757 0.9217 0.3804
vn -0.1092 0.8286 0.5490
vn -0.1385 0.7041 0.6965
vn -0.1626 0.5528 0.8173
vn -0.1804 0.3805 0.9070
vn -0.1930 0.1454 0.9704
vn -0.0769 0.9796 0.1857
vn -0.1484 0.9217 0.3584
vn -0.2142 0.8286 0.5172
vn -0.2718 0.7041 0.6561
vn -0.3189 0.5528 0.7699
vn -0.3539 0.3805 0.8544
vn -0.3786 0.1454 0.9141
vn -0.1117 0.9796 0.1671
vn -0.2155 0.9217 0.3225
vn -0.3110 0.8286 0.4654
vn -0.3945 0.7041 0.5905
vn -0.4630 0.5528 0.6929
vn -0.5138 0.3805 0.7689
vn -0.5497 0.1454 0.8226
vn -0.1421 0.9796 0.1421
vn -0.2743 0.9217 0.2743
vn -0.3958 0.8286 0.3958
vn -0.5021 0.7041 0.5021
vn -0.5893 0.5528 0.5893
vn -0.6539 0.3805 0.6539
vn -0.6996 0.1454 0.6996
vn -0.1671 0.9796 0.1117
vn -0.3225 0.9217 0.2155
vn -0.4654 0.8286 0.3110
vn -0.5905 0.7041 0.3945
vn -0.6929 0.5528 0.4630
vn -0.7689 0.3805 0.5138
vn -0.8226 0.1454 0.5497
vn -0.1857 0.9796 0.0769
vn -0.3584 0.9217 0.1484
vn -0.5172 0.8286 0.2142
vn -0.6561 0.7041 0.2718
vn -0.7699 0.5528 0.3189
vn -0.8544 0.3805 0.3539
vn -0.9141 0.1454 0.3786
vn -0.1971 0.9796 0.0392
vn -0.3804 0.9217 0.0757
vn -0.5490 0.8286 0.1092
vn -0.6965 0.7041 0.1385
vn -0.8173 0.5528 0.1626
vn -0.9070 0.3805 0.1804
vn -0.9704 0.1454 0.1930
vn -0.2010 0.9796 -0.0000
vn -0.3879 0.9217 -0.0000
vn -0.5598 0.8286 -0.0000
vn -0.7101 0.7041 -0.0000
vn -0.8333 0.5528 -0.0000
vn -0.9248 0.3805 -0.0000
vn -0.9894 0.1454 -0.0000
vn -0.1971 0.9796 -0.0392
vn -0.3804 0.9217 -0.0757
vn -0.5490 0.8286 -0.1092
vn -0.6965 0.7041 -0.1385
vn -0.8173 0.5528 -0.1626
vn -0.9070 0.3805 -0.1804
vn -0.9704 0.1454 -0.1930
vn -0.1857 0.9796 -0.0769
vn -0.3584 0.9217 -0.1484
vn -0.5172 0.8286 -0.2142
vn -0.6561 0.7041 -0.2718
vn -0.7699 0.5528 -0.3189
vn -0.8544 0.3805 -0.3539
vn -0.9141 0.1454 -0.3786
vn -0.1671 0.9796 -0.1117
vn -0.3225 0.9217 -0.2155
vn -0.4654 0.8286 -0.3110
vn -0.5905 0.7041 -0.3945
vn -0.6929 0.5528 -0.4630
vn -0.7689 0.3805 -0.5138
vn -0.8226 0.1454 -0.5497
vn -0.1421 0.9796 -0.1421
vn -0.2743 0.9217 -0.2743
vn -0.3958 0.8286 -0.3958
vn -0.5021 0.7041 -0.5021
vn -0.5893 0.5528 -0.5893
vn -0.6539 0.3805 -0.6539
vn -0.6996 0.1454 -0.6996
vn -0.1117 0.9796 -0.1671
vn -0.2155 0.9217 -0.3225
vn -0.3110 0.8286 -0.4654
vn -0.3945 0.7041 -0.5905
vn -0.4630 0.5528 -0.6929
vn -0.5138 0.3805 -0.7689
vn -0.5497 0.1454 -0.8226
vn -0.0769 0.9796 -0.1857
vn -0.1484 0.9217 -0.3584
vn -0.2142 0.8286 -0.5172
vn -0.2718 0.7041 -0.6561
vn -0.3189 0.5528 -0.7699
vn -0.3539 0.3805 -0.8544
vn -0.3786 0.1454 -0.9141
vn -0.0392 0.9796 -0.1971
vn -0.0757 0.9217 -0.3804
vn -0.1092 0.8286 -0.5490
vn -0.1385 0.7041 -0.6965
vn -0.1626 0.5528 -0.8173
vn -0.1804 0.3805 -0.9070
vn -0.1930 0.1454 -0.9704
vn -0.0000 0.9796 -0.2010
vn -0.0000 0.9217 -0.3879
vn -0.0000 0.7041 -0.7101
vn -0.0000 0.3805 -0.9248
vt 0.750000 0.250000
vt 0.718750 0.187500
vt 0.750000 0.187500
vt 0.718750 0.125000
vt 0.750000 0.125000
vt 0.718750 0.062500
vt 0.750000 0.062500
vt 0.734375 0.000000
vt 0.750000 0.437500
vt 0.718750 0.375000
vt 0.750000 0.375000
vt 0.718750 0.312500
vt 0.750000 0.312500
vt 0.718750 0.250000
vt 0.687500 0.250000
vt 0.687500 0.187500
vt 0.687500 0.125000
vt 0.687500 0.062500
vt 0.703125 0.000000
vt 0.718750 0.437500
vt 0.687500 0.375000
vt 0.687500 0.312500
vt 0.671875 0.000000
vt 0.656250 0.062500
vt 0.687500 0.437500
vt 0.656250 0.375000
vt 0.656250 0.312500
vt 0.656250 0.250000
vt 0.656250 0.187500
vt 0.656250 0.125000
vt 0.625000 0.187500
vt 0.625000 0.125000
vt 0.625000 0.062500
vt 0.640625 0.000000
vt 0.656250 0.437500
vt 0.625000 0.375000
vt 0.625000 0.312500
vt 0.625000 0.250000
vt 0.625000 0.437500
vt 0.593750 0.375000
vt 0.593750 0.312500
vt 0.593750 0.250000
vt 0.593750 0.187500
vt 0.593750 0.125000
vt 0.593750 0.062500
vt 0.609375 0.000000
vt 0.562500 0.187500
vt 0.562500 0.125000
vt 0.562500 0.062500
vt 0.578125 0.000000
vt 0.593750 0.437500
vt 0.562500 0.375000
vt 0.562500 0.312500
vt 0.562500 0.250000
vt 0.562500 0.437500
vt 0.531250 0.375000
vt 0.531250 0.312500
vt 0.531250 0.250000
vt 0.531250 0.187500
vt 0.531250 0.125000
vt 0.531250 0.062500
vt 0.546875 0.000000
vt 0.500000 0.125000
vt 0.500000 0.062500
vt 0.515625 0.000000
vt 0.531250 0.437500
vt 0.500000 0.375000
vt 0.500000 0.312500
vt 0.500000 0.250000
vt 0.500000 0.187500
vt 0.500000 0.437500
vt 0.468750 0.375000
vt 0.468750 0.312500
vt 0.468750 0.250000
vt 0.468750 0.187500
vt 0.468750 0.125000
vt 0.468750 0.062500
vt 0.484375 0.000000
vt 0.437500 0.125000
vt 0.437500 0.062500
vt 0.453125 0.000000
vt 0.468750 0.437500
vt 0.437500 0.375000
vt 0.437500 0.312500
vt 0.437500 0.250000
vt 0.437500 0.187500
vt 0.406250 0.375000
vt 0.406250 0.312500
vt 0.406250 0.250000
vt 0.406250 0.187500
vt 0.406250 0.125000
vt 0.406250 0.062500
vt 0.421875 0.000000
vt 0.437500 0.437500
vt 0.375000 0.125000
vt 0.375000 0.062500
vt 0.390625 0.000000
vt 0.406250 0.437500
vt 0.375000 0.375000
vt 0.375000 0.312500
vt 0.375000 0.250000
vt 0.375000 0.187500
vt 0.343750 0.250000
vt 0.343750 0.187500
vt 0.343750 0.125000
vt 0.343750 0.062500
vt 0.359375 0.000000
vt 0.375000 0.437500
vt 0.343750 0.375000
vt 0.343750 0.312500
vt 0.328125 0.000000
vt 0.312500 0.062500
vt 0.343750 0.437500
vt 0.312500 0.375000
vt 0.312500 0.312500
vt 0.312500 0.250000
vt 0.312500 0.187500
vt 0.312500 0.125000
vt 0.281250 0.250000
vt 0.281250 0.187500
vt 0.281250 0.125000
vt 0.281250 0.062500
vt 0.296875 0.000000
vt 0.312500 0.437500
vt 0.281250 0.375000
vt 0.281250 0.312500
vt 0.265625 0.000000
vt 0.250000 0.062500
vt 0.281250 0.437500
vt 0.250000 0.375000
vt 0.250000 0.312500
vt 0.250000 0.250000
vt 0.250000 0.187500
vt 0.250000 0.125000
vt 0.218750 0.250000
vt 0.218750 0.187500
vt 0.218750 0.125000
vt 0.218750 0.062500
vt 0.234375 0.000000
vt 0.250000 0.437500
vt 0.218750 0.375000
vt 0.218750 0.312500
vt 0.218750 0.437500
vt 0.187500 0.375000
vt 0.187500 0.312500
vt 0.187500 0.250000
vt 0.187500 0.187500
vt 0.187500 0.125000
vt 0.187500 0.062500
vt 0.203125 0.000000
vt 0.156250 0.250000
vt 0.156250 0.187500
vt 0.156250 0.125000
vt 0.156250 0.062500
vt 0.171875 0.000000
vt 0.187500 0.437500
vt 0.156250 0.375000
vt 0.156250 0.312500
vt 0.156250 0.437500
vt 0.125000 0.375000
vt 0.125000 0.312500
vt 0.125000 0.250000
vt 0.125000 0.187500
vt 0.125000 0.125000
vt 0.125000 0.062500
vt 0.140625 0.000000
vt 0.093750 0.125000
vt 0.093750 0.062500
vt 0.109375 0.000000
vt 0.125000 0.437500
vt 0.093750 0.375000
vt 0.093750 0.312500
vt 0.093750 0.250000
vt 0.093750 0.187500
vt 0.062500 0.375000
vt 0.062500 0.312500
vt 0.062500 0.250000
vt 0.062500 0.187500
vt 0.062500 0.125000
vt 0.062500 0.062500
vt 0.078125 0.000000
vt 0.093750 0.437500
vt 0.031250 0.062500
vt 0.046875 0.000000
vt 0.062500 0.437500
vt 0.031250 0.375000
vt 0.031250 0.312500
vt 0.031250 0.250000
vt 0.031250 0.187500
vt 0.031250 0.125000
vt 0.000000 0.375000
vt 0.000000 0.312500
vt 0.000000 0.250000
vt 0.000000 0.187500
vt 0.000000 0.125000
vt 0.000000 0.062500
vt 0.015625 0.000000
vt 0.031250 0.437500
vt 1.000000 0.125000
vt 0.968750 0.062500
vt 1.000000 0.062500
vt 0.984375 0.000000
vt 1.000000 0.437500
vt 0.968750 0.375000
vt 1.000000 0.375000
vt 1.000000 0.312500
vt 0.968750 0.312500
vt 0.968750 0.250000
vt 1.000000 0.250000
vt 1.000000 0.187500
vt 0.968750 0.187500
vt 0.968750 0.125000
vt 0.937500 0.250000
vt 0.937500 0.187500
vt 0.937500 0.125000
vt 0.937500 0.062500
vt 0.953125 0.000000
vt 0.968750 0.437500
vt 0.937500 0.375000
vt 0.937500 0.312500
vt 0.921875 0.000000
vt 0.906250 0.062500
vt 0.937500 0.437500
vt 0.906250 0.375000
vt 0.906250 0.312500
vt 0.906250 0.250000
vt 0.906250 0.187500
vt 0.906250 0.125000
vt 0.875000 0.250000
vt 0.875000 0.187500
vt 0.875000 0.125000
vt 0.875000 0.062500
vt 0.890625 0.000000
vt 0.906250 0.437500
vt 0.875000 0.375000
vt 0.875000 0.312500
vt 0.859375 0.000000
vt 0.843750 0.062500
vt 0.875000 0.437500
vt 0.843750 0.375000
vt 0.843750 0.312500
vt 0.843750 0.250000
vt 0.843750 0.187500
vt 0.843750 0.125000
vt 0.812500 0.250000
vt 0.812500 0.187500
vt 0.812500 0.125000
vt 0.812500 0.062500
vt 0.828125 0.000000
vt 0.843750 0.437500
vt 0.812500 0.375000
vt 0.812500 0.312500
vt 0.812500 0.437500
vt 0.781250 0.375000
vt 0.781250 0.312500
vt 0.781250 0.250000
vt 0.781250 0.187500
vt 0.781250 0.125000
vt 0.781250 0.062500
vt 0.796875 0.000000
vt 0.765625 0.000000
vt 0.781250 0.437500
vt 0.750000 0.625000
vt 0.718750 0.687500
vt 0.718750 0.625000
vt 0.718750 0.562500
vt 0.750000 0.562500
vt 0.750000 0.937500
vt 0.734375 1.000000
vt 0.718750 0.937500
vt 0.750000 0.875000
vt 0.718750 0.875000
vt 0.750000 0.812500
vt 0.718750 0.812500
vt 0.750000 0.750000
vt 0.718750 0.750000
vt 0.750000 0.687500
vt 0.687500 0.687500
vt 0.687500 0.625000
vt 0.687500 0.562500
vt 0.703125 1.000000
vt 0.687500 0.937500
vt 0.687500 0.875000
vt 0.687500 0.812500
vt 0.687500 0.750000
vt 0.671875 1.000000
vt 0.656250 0.937500
vt 0.656250 0.875000
vt 0.656250 0.812500
vt 0.656250 0.750000
vt 0.656250 0.687500
vt 0.656250 0.625000
vt 0.656250 0.562500
vt 0.625000 0.750000
vt 0.625000 0.687500
vt 0.625000 0.625000
vt 0.625000 0.562500
vt 0.640625 1.000000
vt 0.625000 0.937500
vt 0.625000 0.875000
vt 0.625000 0.812500
vt 0.593750 0.875000
vt 0.593750 0.812500
vt 0.593750 0.750000
vt 0.593750 0.687500
vt 0.593750 0.625000
vt 0.593750 0.562500
vt 0.609375 1.000000
vt 0.593750 0.937500
vt 0.562500 0.625000
vt 0.562500 0.562500
vt 0.578125 1.000000
vt 0.562500 0.937500
vt 0.562500 0.875000
vt 0.562500 0.812500
vt 0.562500 0.750000
vt 0.562500 0.687500
vt 0.531250 0.875000
vt 0.531250 0.812500
vt 0.531250 0.750000
vt 0.531250 0.687500
vt 0.531250 0.625000
vt 0.531250 0.562500
vt 0.546875 1.000000
vt 0.531250 0.937500
vt 0.500000 0.625000
vt 0.500000 0.562500
vt 0.515625 1.000000
vt 0.500000 0.937500
vt 0.500000 0.875000
vt 0.500000 0.812500
vt 0.500000 0.750000
vt 0.500000 0.687500
vt 0.468750 0.812500
vt 0.468750 0.750000
vt 0.468750 0.687500
vt 0.468750 0.625000
vt 0.468750 0.562500
vt 0.484375 1.000000
vt 0.468750 0.937500
vt 0.468750 0.875000
vt 0.437500 0.625000
vt 0.437500 0.562500
vt 0.453125 1.000000
vt 0.437500 0.937500
vt 0.437500 0.875000
vt 0.437500 0.812500
vt 0.437500 0.750000
vt 0.437500 0.687500
vt 0.406250 0.750000
vt 0.406250 0.687500
vt 0.406250 0.625000
vt 0.406250 0.562500
vt 0.421875 1.000000
vt 0.406250 0.937500
vt 0.406250 0.875000
vt 0.406250 0.812500
vt 0.390625 1.000000
vt 0.375000 0.937500
vt 0.375000 0.875000
vt 0.375000 0.812500
vt 0.375000 0.750000
vt 0.375000 0.687500
vt 0.375000 0.625000
vt 0.375000 0.562500
vt 0.343750 0.750000
vt 0.343750 0.687500
vt 0.343750 0.625000
vt 0.343750 0.562500
vt 0.359375 1.000000
vt 0.343750 0.937500
vt 0.343750 0.875000
vt 0.343750 0.812500
vt 0.328125 1.000000
vt 0.312500 0.937500
vt 0.312500 0.875000
vt 0.312500 0.812500
vt 0.312500 0.750000
vt 0.312500 0.687500
vt 0.312500 0.625000
vt 0.312500 0.562500
vt 0.281250 0.750000
vt 0.281250 0.687500
vt 0.281250 0.625000
vt 0.281250 0.562500
vt 0.296875 1.000000
vt 0.281250 0.937500
vt 0.281250 0.875000
vt 0.281250 0.812500
vt 0.265625 1.000000
vt 0.250000 0.937500
vt 0.250000 0.875000
vt 0.250000 0.812500
vt 0.250000 0.750000
vt 0.250000 0.687500
vt 0.250000 0.625000
vt 0.250000 0.562500
vt 0.218750 0.687500
vt 0.218750 0.625000
vt 0.218750 0.562500
vt 0.234375 1.000000
vt 0.218750 0.937500
vt 0.218750 0.875000
vt 0.218750 0.812500
vt 0.218750 0.750000
vt 0.187500 0.937500
vt 0.187500 0.875000
vt 0.187500 0.812500
vt 0.187500 0.750000
vt 0.187500 0.687500
vt 0.187500 0.625000
vt 0.187500 0.562500
vt 0.203125 1.000000
vt 0.156250 0.625000
vt 0.156250 0.562500
vt 0.171875 1.000000
vt 0.156250 0.937500
vt 0.156250 0.875000
vt 0.156250 0.812500
vt 0.156250 0.750000
vt 0.156250 0.687500
vt 0.125000 0.812500
vt 0.125000 0.750000
vt 0.125000 0.687500
vt 0.125000 0.625000
vt 0.125000 0.562500
vt 0.140625 1.000000
vt 0.125000 0.937500
vt 0.125000 0.875000
vt 0.093750 0.625000
vt 0.093750 0.562500
vt 0.109375 1.000000
vt 0.093750 0.937500
vt 0.093750 0.875000
vt 0.093750 0.812500
vt 0.093750 0.750000
vt 0.093750 0.687500
vt 0.062500 0.812500
vt 0.062500 0.750000
vt 0.062500 0.687500
vt 0.062500 0.625000
vt 0.062500 0.562500
vt 0.078125 1.000000
vt 0.062500 0.937500
vt 0.062500 0.875000
vt 0.031250 0.625000
vt 0.031250 0.562500
vt 0.046875 1.000000
vt 0.031250 0.937500
vt 0.031250 0.875000
vt 0.031250 0.812500
vt 0.031250 0.750000
vt 0.031250 0.687500
vt 0.000000 0.750000
vt 0.000000 0.687500
vt 0.000000 0.625000
vt 0.000000 0.562500
vt 0.015625 1.000000
vt 0.000000 0.937500
vt 0.000000 0.875000
vt 0.000000 0.812500
vt 1.000000 0.937500
vt 0.984375 1.000000
vt 0.968750 0.937500
vt 0.968750 0.875000
vt 1.000000 0.875000
vt 1.000000 0.812500
vt 0.968750 0.812500
vt 0.968750 0.750000
vt 1.000000 0.750000
vt 1.000000 0.687500
vt 0.968750 0.687500
vt 0.968750 0.625000
vt 1.000000 0.625000
vt 1.000000 0.562500
vt 0.968750 0.562500
vt 0.937500 0.750000
vt 0.937500 0.687500
vt 0.937500 0.625000
vt 0.937500 0.562500
vt 0.953125 1.000000
vt 0.937500 0.937500
vt 0.937500 0.875000
vt 0.937500 0.812500
vt 0.921875 1.000000
vt 0.906250 0.937500
vt 0.906250 0.875000
vt 0.906250 0.812500
vt 0.906250 0.750000
vt 0.906250 0.687500
vt 0.906250 0.625000
vt 0.906250 0.562500
vt 0.875000 0.750000
vt 0.875000 0.687500
vt 0.875000 0.625000
vt 0.875000 0.562500
vt 0.890625 1.000000
vt 0.875000 0.937500
vt 0.875000 0.875000
vt 0.875000 0.812500
vt 0.843750 0.875000
vt 0.843750 0.812500
vt 0.843750 0.750000
vt 0.843750 0.687500
vt 0.843750 0.625000
vt 0.843750 0.562500
vt 0.859375 1.000000
vt 0.843750 0.937500
vt 0.812500 0.625000
vt 0.812500 0.562500
vt 0.828125 1.000000
vt 0.812500 0.937500
vt 0.812500 0.875000
vt 0.812500 0.812500
vt 0.812500 0.750000
vt 0.812500 0.687500
vt 0.781250 0.875000
vt 0.781250 0.812500
vt 0.781250 0.750000
vt 0.781250 0.687500
vt 0.781250 0.625000
vt 0.781250 0.562500
vt 0.796875 1.000000
vt 0.781250 0.937500
vt 0.765625 1.000000
vt 0.000000 0.437500
s 1
f 222/1/222 7/2/7 223/3/223
f 223/3/223 8/4/8 224/5/224
f 224/5/224 9/6/9 225/7/225
f 143/8/143 225/7/225 9/6/9
f 1/9/1 4/10/4 221/11/221
f 221/11/221 5/12/5 2/13/2
f 2/13/2 6/14/6 222/1/222
f 5/12/5 13/15/13 6/14/6
f 7/2/7 13/15/13 14/16/14
f 8/4/8 14/16/14 15/17/15
f 8/4/8 16/18/16 9/6/9
f 143/19/143 9/6/9 16/18/16
f 3/20/3 11/21/11 4/10/4
f 4/10/4 12/22/12 5/12/5
f 143/23/143 16/18/16 23/24/23
f 10/25/10 18/26/18 11/21/11
f 12/22/12 18/26/18 19/27/19
f 13/15/13 19/27/19 20/28/20
f 14/16/14 20/28/20 21/29/21
f 14/16/14 22/30/22 15/17/15
f 15/17/15 23/24/23 16/18/16
f 20/28/20 28/31/28 21/29/21
f 21/29/21 29/32/29 22/30/22
f 22/30/22 30/33/30 23/24/23
f 143/34/143 23/24/23 30/33/30
f 17/35/17 25/36/25 18/26/18
f 19/27/19 25/36/25 26/37/26
f 19/27/19 27/38/27 20/28/20
f 24/39/24 32/40/32 25/36/25
f 26/37/26 32/40/32 33/41/33
f 26/37/26 34/42/34 27/38/27
f 27/38/27 35/43/35 28/31/28
f 29/32/29 35/43/35 36/44/36
f 29/32/29 37/45/37 30/33/30
f 143/46/143 30/33/30 37/45/37
f 34/42/34 42/47/42 35/43/35
f 35/43/35 43/48/43 36/44/36
f 37/45/37 43/48/43 44/49/44
f 143/50/143 37/45/37 44/49/44
f 31/51/31 39/52/39 32/40/32
f 33/41/33 39/52/39 40/53/40
f 33/41/33 41/54/41 34/42/34
f 38/55/38 46/56/46 39/52/39
f 40/53/40 46/56/46 47/57/47
f 40/53/40 48/58/48 41/54/41
f 42/47/42 48/58/48 49/59/49
f 43/48/43 49/59/49 50/60/50
f 43/48/43 51/61/51 44/49/44
f 143/62/143 44/49/44 51/61/51
f 49/59/49 57/63/57 50/60/50
f 50/60/50 58/64/58 51/61/51
f 143/65/143 51/61/51 58/64/58
f 45/66/45 53/67/53 46/56/46
f 47/57/47 53/67/53 54/68/54
f 47/57/47 55/69/55 48/58/48
f 49/59/49 55/69/55 56/70/56
f 52/71/52 60/72/60 53/67/53
f 54/68/54 60/72/60 61/73/61
f 54/68/54 62/74/62 55/69/55
f 56/70/56 62/74/62 63/75/63
f 56/70/56 64/76/64 57/63/57
f 57/63/57 65/77/65 58/64/58
f 143/78/143 58/64/58 65/77/65
f 63/75/63 71/79/71 64/76/64
f 65/77/65 71/79/71 72/80/72
f 143/81/143 65/77/65 72/80/72
f 59/82/59 67/83/67 60/72/60
f 61/73/61 67/83/67 68/84/68
f 61/73/61 69/85/69 62/74/62
f 63/75/63 69/85/69 70/86/70
f 68/84/68 74/87/74 75/88/75
f 68/84/68 76/89/76 69/85/69
f 70/86/70 76/89/76 77/90/77
f 70/86/70 78/91/78 71/79/71
f 71/79/71 79/92/79 72/80/72
f 143/93/143 72/80/72 79/92/79
f 66/94/66 74/87/74 67/83/67
f 79/92/79 85/95/85 86/96/86
f 143/97/143 79/92/79 86/96/86
f 73/98/73 81/99/81 74/87/74
f 75/88/75 81/99/81 82/100/82
f 75/88/75 83/101/83 76/89/76
f 76/89/76 84/102/84 77/90/77
f 78/91/78 84/102/84 85/95/85
f 82/100/82 90/103/90 83/101/83
f 84/102/84 90/103/90 91/104/91
f 84/102/84 92/105/92 85/95/85
f 85/95/85 93/106/93 86/96/86
f 143/107/143 86/96/86 93/106/93
f 80/108/80 88/109/88 81/99/81
f 82/100/82 88/109/88 89/110/89
f 143/111/143 93/106/93 100/112/100
f 87/113/87 95/114/95 88/109/88
f 89/110/89 95/114/95 96/115/96
f 89/110/89 97/116/97 90/103/90
f 91/104/91 97/116/97 98/117/98
f 91/104/91 99/118/99 92/105/92
f 92/105/92 100/112/100 93/106/93
f 96/115/96 104/119/104 97/116/97
f 98/117/98 104/119/104 105/120/105
f 98/117/98 106/121/106 99/118/99
f 99/118/99 107/122/107 100/112/100
f 143/123/143 100/112/100 107/122/107
f 94/124/94 102/125/102 95/114/95
f 96/115/96 102/125/102 103/126/103
f 143/127/143 107/122/107 114/128/114
f 101/129/101 109/130/109 102/125/102
f 103/126/103 109/130/109 110/131/110
f 103/126/103 111/132/111 104/119/104
f 105/120/105 111/132/111 112/133/112
f 105/120/105 113/134/113 106/121/106
f 107/122/107 113/134/113 114/128/114
f 112/133/112 118/135/118 119/136/119
f 112/133/112 120/137/120 113/134/113
f 113/134/113 121/138/121 114/128/114
f 143/139/143 114/128/114 121/138/121
f 108/140/108 116/141/116 109/130/109
f 110/131/110 116/141/116 117/142/117
f 110/131/110 118/135/118 111/132/111
f 115/143/115 123/144/123 116/141/116
f 117/142/117 123/144/123 124/145/124
f 117/142/117 125/146/125 118/135/118
f 119/136/119 125/146/125 126/147/126
f 119/136/119 127/148/127 120/137/120
f 120/137/120 128/149/128 121/138/121
f 143/150/143 121/138/121 128/149/128
f 126/147/126 132/151/132 133/152/133
f 126/147/126 134/153/134 127/148/127
f 128/149/128 134/153/134 135/154/135
f 143/155/143 128/149/128 135/154/135
f 122/156/122 130/157/130 123/144/123
f 124/145/124 130/157/130 131/158/131
f 124/145/124 132/151/132 125/146/125
f 129/159/129 137/160/137 130/157/130
f 131/158/131 137/160/137 138/161/138
f 131/158/131 139/162/139 132/151/132
f 133/152/133 139/162/139 140/163/140
f 133/152/133 141/164/141 134/153/134
f 135/154/135 141/164/141 142/165/142
f 143/166/143 135/154/135 142/165/142
f 140/163/140 149/167/149 141/164/141
f 141/164/141 150/168/150 142/165/142
f 143/169/143 142/165/142 150/168/150
f 136/170/136 145/171/145 137/160/137
f 138/161/138 145/171/145 146/172/146
f 138/161/138 147/173/147 139/162/139
f 140/163/140 147/173/147 148/174/148
f 146/172/146 152/175/152 153/176/153
f 146/172/146 154/177/154 147/173/147
f 148/174/148 154/177/154 155/178/155
f 148/174/148 156/179/156 149/167/149
f 149/167/149 157/180/157 150/168/150
f 143/181/143 150/168/150 157/180/157
f 144/182/144 152/175/152 145/171/145
f 156/179/156 164/183/164 157/180/157
f 143/184/143 157/180/157 164/183/164
f 151/185/151 159/186/159 152/175/152
f 153/176/153 159/186/159 160/187/160
f 153/176/153 161/188/161 154/177/154
f 155/178/155 161/188/161 162/189/162
f 155/178/155 163/190/163 156/179/156
f 160/187/160 166/191/166 167/192/167
f 160/187/160 168/193/168 161/188/161
f 162/189/162 168/193/168 169/194/169
f 162/189/162 170/195/170 163/190/163
f 163/190/163 171/196/171 164/183/164
f 143/197/143 164/183/164 171/196/171
f 158/198/158 166/191/166 159/186/159
f 170/199/170 178/200/178 171/201/171
f 143/202/143 171/201/171 178/200/178
f 165/203/165 173/204/173 166/205/166
f 167/206/167 173/204/173 174/207/174
f 167/206/167 175/208/175 168/209/168
f 169/210/169 175/208/175 176/211/176
f 169/210/169 177/212/177 170/199/170
f 174/207/174 182/213/182 175/208/175
f 176/211/176 182/213/182 183/214/183
f 176/211/176 184/215/184 177/212/177
f 177/212/177 185/216/185 178/200/178
f 143/217/143 178/200/178 185/216/185
f 172/218/172 180/219/180 173/204/173
f 174/207/174 180/219/180 181/220/181
f 143/221/143 185/216/185 192/222/192
f 179/223/179 187/224/187 180/219/180
f 181/220/181 187/224/187 188/225/188
f 181/220/181 189/226/189 182/213/182
f 183/214/183 189/226/189 190/227/190
f 184/215/184 190/227/190 191/228/191
f 184/215/184 192/222/192 185/216/185
f 188/225/188 196/229/196 189/226/189
f 190/227/190 196/229/196 197/230/197
f 190/227/190 198/231/198 191/228/191
f 191/228/191 199/232/199 192/222/192
f 143/233/143 192/222/192 199/232/199
f 186/234/186 194/235/194 187/224/187
f 188/225/188 194/235/194 195/236/195
f 143/237/143 199/232/199 206/238/206
f 193/239/193 201/240/201 194/235/194
f 195/236/195 201/240/201 202/241/202
f 195/236/195 203/242/203 196/229/196
f 197/230/197 203/242/203 204/243/204
f 197/230/197 205/244/205 198/231/198
f 198/231/198 206/238/206 199/232/199
f 204/243/204 210/245/210 211/246/211
f 204/243/204 212/247/212 205/244/205
f 205/244/205 213/248/213 206/238/206
f 143/249/143 206/238/206 213/248/213
f 200/250/200 208/251/208 201/240/201
f 202/241/202 208/251/208 209/252/209
f 202/241/202 210/245/210 203/242/203
f 207/253/207 215/254/215 208/251/208
f 209/252/209 215/254/215 216/255/216
f 209/252/209 217/256/217 210/245/210
f 211/246/211 217/256/217 218/257/218
f 211/246/211 219/258/219 212/247/212
f 213/248/213 219/258/219 220/259/220
f 143/260/143 213/248/213 220/259/220
f 218/257/218 224/5/224 219/258/219
f 219/258/219 225/7/225 220/259/220
f 143/261/143 220/259/220 225/7/225
f 214/262/214 221/11/221 215/254/215
f 215/254/215 2/13/2 216/255/216
f 216/255/216 222/1/222 217/256/217
f 218/257/218 222/1/222 223/3/223
f 450/263/450 233/264/233 234/265/234
f 450/263/450 235/266/235 228/267/228
f 447/268/447 264/269/264 229/270/229
f 448/271/448 229/270/229 230/272/230
f 226/273/226 230/272/230 231/274/231
f 449/275/449 231/274/231 232/276/232
f 449/275/449 233/264/233 227/277/227
f 232/276/232 240/278/240 233/264/233
f 233/264/233 241/279/241 234/265/234
f 235/266/235 241/279/241 242/280/242
f 229/270/229 264/281/264 236/282/236
f 229/270/229 237/283/237 230/272/230
f 230/272/230 238/284/238 231/274/231
f 231/274/231 239/285/239 232/276/232
f 236/282/236 264/286/264 243/287/243
f 236/282/236 244/288/244 237/283/237
f 237/283/237 245/289/245 238/284/238
f 239/285/239 245/289/245 246/290/246
f 239/285/239 247/291/247 240/278/240
f 240/278/240 248/292/248 241/279/241
f 242/280/242 248/292/248 249/293/249
f 247/291/247 253/294/253 254/295/254
f 247/291/247 255/296/255 248/292/248
f 249/293/249 255/296/255 256/297/256
f 243/287/243 264/298/264 250/299/250
f 243/287/243 251/300/251 244/288/244
f 244/288/244 252/301/252 245/289/245
f 245/289/245 253/294/253 246/290/246
f 250/299/250 258/302/258 251/300/251
f 252/301/252 258/302/258 259/303/259
f 252/301/252 260/304/260 253/294/253
f 254/295/254 260/304/260 261/305/261
f 254/295/254 262/306/262 255/296/255
f 256/297/256 262/306/262 263/307/263
f 250/299/250 264/308/264 257/309/257
f 261/305/261 270/310/270 262/306/262
f 263/307/263 270/310/270 271/311/271
f 257/309/257 264/312/264 265/313/265
f 257/309/257 266/314/266 258/302/258
f 258/302/258 267/315/267 259/303/259
f 259/303/259 268/316/268 260/304/260
f 261/305/261 268/316/268 269/317/269
f 265/313/265 273/318/273 266/314/266
f 266/314/266 274/319/274 267/315/267
f 267/315/267 275/320/275 268/316/268
f 269/317/269 275/320/275 276/321/276
f 269/317/269 277/322/277 270/310/270
f 271/311/271 277/322/277 278/323/278
f 265/313/265 264/324/264 272/325/272
f 276/321/276 284/326/284 277/322/277
f 278/323/278 284/326/284 285/327/285
f 272/325/272 264/328/264 279/329/279
f 272/325/272 280/330/280 273/318/273
f 273/318/273 281/331/281 274/319/274
f 274/319/274 282/332/282 275/320/275
f 276/321/276 282/332/282 283/333/283
f 280/330/280 288/334/288 281/331/281
f 281/331/281 289/335/289 282/332/282
f 282/332/282 290/336/290 283/333/283
f 283/333/283 291/337/291 284/326/284
f 285/327/285 291/337/291 292/338/292
f 279/329/279 264/339/264 286/340/286
f 280/330/280 286/340/286 287/341/287
f 292/338/292 298/342/298 299/343/299
f 286/340/286 264/344/264 293/345/293
f 286/340/286 294/346/294 287/341/287
f 287/341/287 295/347/295 288/334/288
f 288/334/288 296/348/296 289/335/289
f 290/336/290 296/348/296 297/349/297
f 290/336/290 298/342/298 291/337/291
f 295/347/295 303/350/303 296/348/296
f 297/349/297 303/350/303 304/351/304
f 297/349/297 305/352/305 298/342/298
f 299/343/299 305/352/305 306/353/306
f 293/345/293 264/354/264 300/355/300
f 293/345/293 301/356/301 294/346/294
f 294/346/294 302/357/302 295/347/295
f 300/355/300 264/358/264 307/359/307
f 300/355/300 308/360/308 301/356/301
f 301/356/301 309/361/309 302/357/302
f 302/357/302 310/362/310 303/350/303
f 304/351/304 310/362/310 311/363/311
f 304/351/304 312/364/312 305/352/305
f 306/353/306 312/364/312 313/365/313
f 309/361/309 317/366/317 310/362/310
f 311/363/311 317/366/317 318/367/318
f 311/363/311 319/368/319 312/364/312
f 313/365/313 319/368/319 320/369/320
f 307/359/307 264/370/264 314/371/314
f 308/360/308 314/371/314 315/372/315
f 308/360/308 316/373/316 309/361/309
f 314/371/314 264/374/264 321/375/321
f 314/371/314 322/376/322 315/372/315
f 315/372/315 323/377/323 316/373/316
f 316/373/316 324/378/324 317/366/317
f 317/366/317 325/379/325 318/367/318
f 318/367/318 326/380/326 319/368/319
f 320/369/320 326/380/326 327/381/327
f 325/379/325 331/382/331 332/383/332
f 325/379/325 333/384/333 326/380/326
f 327/381/327 333/384/333 334/385/334
f 321/375/321 264/386/264 328/387/328
f 321/375/321 329/388/329 322/376/322
f 322/376/322 330/389/330 323/377/323
f 323/377/323 331/382/331 324/378/324
f 328/387/328 264/390/264 335/391/335
f 329/388/329 335/391/335 336/392/336
f 329/388/329 337/393/337 330/389/330
f 330/389/330 338/394/338 331/382/331
f 332/383/332 338/394/338 339/395/339
f 332/383/332 340/396/340 333/384/333
f 334/385/334 340/396/340 341/397/341
f 338/394/338 346/398/346 339/395/339
f 339/395/339 347/399/347 340/396/340
f 341/397/341 347/399/347 348/400/348
f 335/391/335 264/401/264 342/402/342
f 335/391/335 343/403/343 336/392/336
f 336/392/336 344/404/344 337/393/337
f 337/393/337 345/405/345 338/394/338
f 343/403/343 349/406/349 350/407/350
f 343/403/343 351/408/351 344/404/344
f 344/404/344 352/409/352 345/405/345
f 346/398/346 352/409/352 353/410/353
f 346/398/346 354/411/354 347/399/347
f 348/400/348 354/411/354 355/412/355
f 342/402/342 264/413/264 349/406/349
f 353/410/353 361/414/361 354/411/354
f 355/412/355 361/414/361 362/415/362
f 349/406/349 264/416/264 356/417/356
f 349/406/349 357/418/357 350/407/350
f 351/408/351 357/418/357 358/419/358
f 351/408/351 359/420/359 352/409/352
f 353/410/353 359/420/359 360/421/360
f 357/418/357 365/422/365 358/419/358
f 358/419/358 366/423/366 359/420/359
f 360/421/360 366/423/366 367/424/367
f 360/421/360 368/425/368 361/414/361
f 362/415/362 368/425/368 369/426/369
f 356/417/356 264/427/264 363/428/363
f 356/417/356 364/429/364 357/418/357
f 369/426/369 375/430/375 376/431/376
f 363/428/363 264/432/264 370/433/370
f 363/428/363 371/434/371 364/429/364
f 364/429/364 372/435/372 365/422/365
f 365/422/365 373/436/373 366/423/366
f 367/424/367 373/436/373 374/437/374
f 367/424/367 375/430/375 368/425/368
f 371/434/371 379/438/379 372/435/372
f 372/435/372 380/439/380 373/436/373
f 374/437/374 380/439/380 381/440/381
f 374/437/374 382/441/382 375/430/375
f 376/431/376 382/441/382 383/442/383
f 370/433/370 264/443/264 377/444/377
f 370/433/370 378/445/378 371/434/371
f 383/442/383 389/446/389 390/447/390
f 377/444/377 264/448/264 384/449/384
f 377/444/377 385/450/385 378/445/378
f 378/445/378 386/451/386 379/438/379
f 379/438/379 387/452/387 380/439/380
f 381/440/381 387/452/387 388/453/388
f 381/440/381 389/446/389 382/441/382
f 386/451/386 394/454/394 387/452/387
f 388/453/388 394/454/394 395/455/395
f 388/453/388 396/456/396 389/446/389
f 390/447/390 396/456/396 397/457/397
f 384/449/384 264/458/264 391/459/391
f 384/449/384 392/460/392 385/450/385
f 385/450/385 393/461/393 386/451/386
f 391/462/391 264/463/264 398/464/398
f 391/462/391 399/465/399 392/466/392
f 393/467/393 399/465/399 400/468/400
f 393/467/393 401/469/401 394/470/394
f 395/471/395 401/469/401 402/472/402
f 395/471/395 403/473/403 396/474/396
f 397/475/397 403/473/403 404/476/404
f 400/468/400 408/477/408 401/469/401
f 402/472/402 408/477/408 409/478/409
f 402/472/402 410/479/410 403/473/403
f 404/476/404 410/479/410 411/480/411
f 398/464/398 264/481/264 405/482/405
f 398/464/398 406/483/406 399/465/399
f 400/468/400 406/483/406 407/484/407
f 405/482/405 264/485/264 412/486/412
f 405/482/405 413/487/413 406/483/406
f 406/483/406 414/488/414 407/484/407
f 407/484/407 415/489/415 408/477/408
f 409/478/409 415/489/415 416/490/416
f 409/478/409 417/491/417 410/479/410
f 411/480/411 417/491/417 418/492/418
f 416/490/416 422/493/422 423/494/423
f 416/490/416 424/495/424 417/491/417
f 418/492/418 424/495/424 425/496/425
f 412/486/412 264/497/264 419/498/419
f 412/486/412 420/499/420 413/487/413
f 413/487/413 421/500/421 414/488/414
f 414/488/414 422/493/422 415/489/415
f 419/498/419 427/501/427 420/499/420
f 421/500/421 427/501/427 428/502/428
f 421/500/421 429/503/429 422/493/422
f 423/494/423 429/503/429 430/504/430
f 423/494/423 431/505/431 424/495/424
f 425/496/425 431/505/431 432/506/432
f 419/498/419 264/507/264 426/508/426
f 430/504/430 438/509/438 431/505/431
f 432/506/432 438/509/438 439/510/439
f 426/508/426 264/511/264 433/512/433
f 427/501/427 433/512/433 434/513/434
f 428/502/428 434/513/434 435/514/435
f 428/502/428 436/515/436 429/503/429
f 430/504/430 436/515/436 437/516/437
f 433/512/433 441/517/441 434/513/434
f 434/513/434 442/518/442 435/514/435
f 435/514/435 443/519/443 436/515/436
f 437/516/437 443/519/443 444/520/444
f 437/516/437 445/521/445 438/509/438
f 439/510/439 445/521/445 446/522/446
f 433/512/433 264/523/264 440/524/440
f 445/521/445 227/277/227 450/263/450
f 446/522/446 450/263/450 228/267/228
f 440/524/440 264/525/264 447/268/447
f 440/524/440 448/271/448 441/517/441
f 442/518/442 448/271/448 226/273/226
f 443/519/443 226/273/226 449/275/449
f 444/520/444 449/275/449 227/277/227
f 242/280/242 3/20/3 235/266/235
f 249/293/249 10/25/10 242/280/242
f 256/297/256 17/35/17 249/293/249
f 263/307/263 24/39/24 256/297/256
f 271/311/271 31/51/31 263/307/263
f 278/323/278 38/55/38 271/311/271
f 285/327/285 45/66/45 278/323/278
f 292/338/292 52/71/52 285/327/285
f 299/343/299 59/82/59 292/338/292
f 306/353/306 66/94/66 299/343/299
f 313/365/313 73/98/73 306/353/306
f 320/369/320 80/108/80 313/365/313
f 327/381/327 87/113/87 320/369/320
f 334/385/334 94/124/94 327/381/327
f 341/397/341 101/129/101 334/385/334
f 348/400/348 108/140/108 341/397/341
f 355/412/355 115/143/115 348/400/348
f 362/415/362 122/156/122 355/412/355
f 369/426/369 129/159/129 362/415/362
f 376/431/376 136/170/136 369/426/369
f 383/442/383 144/182/144 376/431/376
f 390/447/390 151/185/151 383/442/383
f 397/457/397 158/198/158 390/447/390
f 404/476/404 165/203/165 397/475/397
f 411/480/411 172/218/172 404/476/404
f 418/492/418 179/223/179 411/480/411
f 425/496/425 186/234/186 418/492/418
f 432/506/432 193/239/193 425/496/425
f 439/510/439 200/250/200 432/506/432
f 446/522/446 207/253/207 439/510/439
f 228/267/228 214/262/214 446/522/446
f 235/266/235 1/9/1 228/267/228
f 222/1/222 6/14/6 7/2/7
f 223/3/223 7/2/7 8/4/8
f 224/5/224 8/4/8 9/6/9
f 1/9/1 3/20/3 4/10/4
f 221/11/221 4/10/4 5/12/5
f 2/13/2 5/12/5 6/14/6
f 5/12/5 12/22/12 13/15/13
f 7/2/7 6/14/6 13/15/13
f 8/4/8 7/2/7 14/16/14
f 8/4/8 15/17/15 16/18/16
f 3/20/3 10/25/10 11/21/11
f 4/10/4 11/21/11 12/22/12
f 10/25/10 17/35/17 18/26/18
f 12/22/12 11/21/11 18/26/18
f 13/15/13 12/22/12 19/27/19
f 14/16/14 13/15/13 20/28/20
f 14/16/14 21/29/21 22/30/22
f 15/17/15 22/30/22 23/24/23
f 20/28/20 27/38/27 28/31/28
f 21/29/21 28/31/28 29/32/29
f 22/30/22 29/32/29 30/33/30
f 17/35/17 24/39/24 25/36/25
f 19/27/19 18/26/18 25/36/25
f 19/27/19 26/37/26 27/38/27
f 24/39/24 31/51/31 32/40/32
f 26/37/26 25/36/25 32/40/32
f 26/37/26 33/41/33 34/42/34
f 27/38/27 34/42/34 35/43/35
f 29/32/29 28/31/28 35/43/35
f 29/32/29 36/44/36 37/45/37
f 34/42/34 41/54/41 42/47/42
f 35/43/35 42/47/42 43/48/43
f 37/45/37 36/44/36 43/48/43
f 31/51/31 38/55/38 39/52/39
f 33/41/33 32/40/32 39/52/39
f 33/41/33 40/53/40 41/54/41
f 38/55/38 45/66/45 46/56/46
f 40/53/40 39/52/39 46/56/46
f 40/53/40 47/57/47 48/58/48
f 42/47/42 41/54/41 48/58/48
f 43/48/43 42/47/42 49/59/49
f 43/48/43 50/60/50 51/61/51
f 49/59/49 56/70/56 57/63/57
f 50/60/50 57/63/57 58/64/58
f 45/66/45 52/71/52 53/67/53
f 47/57/47 46/56/46 53/67/53
f 47/57/47 54/68/54 55/69/55
f 49/59/49 48/58/48 55/69/55
f 52/71/52 59/82/59 60/72/60
f 54/68/54 53/67/53 60/72/60
f 54/68/54 61/73/61 62/74/62
f 56/70/56 55/69/55 62/74/62
f 56/70/56 63/75/63 64/76/64
f 57/63/57 64/76/64 65/77/65
f 63/75/63 70/86/70 71/79/71
f 65/77/65 64/76/64 71/79/71
f 59/82/59 66/94/66 67/83/67
f 61/73/61 60/72/60 67/83/67
f 61/73/61 68/84/68 69/85/69
f 63/75/63 62/74/62 69/85/69
f 68/84/68 67/83/67 74/87/74
f 68/84/68 75/88/75 76/89/76
f 70/86/70 69/85/69 76/89/76
f 70/86/70 77/90/77 78/91/78
f 71/79/71 78/91/78 79/92/79
f 66/94/66 73/98/73 74/87/74
f 79/92/79 78/91/78 85/95/85
f 73/98/73 80/108/80 81/99/81
f 75/88/75 74/87/74 81/99/81
f 75/88/75 82/100/82 83/101/83
f 76/89/76 83/101/83 84/102/84
f 78/91/78 77/90/77 84/102/84
f 82/100/82 89/110/89 90/103/90
f 84/102/84 83/101/83 90/103/90
f 84/102/84 91/104/91 92/105/92
f 85/95/85 92/105/92 93/106/93
f 80/108/80 87/113/87 88/109/88
f 82/100/82 81/99/81 88/109/88
f 87/113/87 94/124/94 95/114/95
f 89/110/89 88/109/88 95/114/95
f 89/110/89 96/115/96 97/116/97
f 91/104/91 90/103/90 97/116/97
f 91/104/91 98/117/98 99/118/99
f 92/105/92 99/118/99 100/112/100
f 96/115/96 103/126/103 104/119/104
f 98/117/98 97/116/97 104/119/104
f 98/117/98 105/120/105 106/121/106
f 99/118/99 106/121/106 107/122/107
f 94/124/94 101/129/101 102/125/102
f 96/115/96 95/114/95 102/125/102
f 101/129/101 108/140/108 109/130/109
f 103/126/103 102/125/102 109/130/109
f 103/126/103 110/131/110 111/132/111
f 105/120/105 104/119/104 111/132/111
f 105/120/105 112/133/112 113/134/113
f 107/122/107 106/121/106 113/134/113
f 112/133/112 111/132/111 118/135/118
f 112/133/112 119/136/119 120/137/120
f 113/134/113 120/137/120 121/138/121
f 108/140/108 115/143/115 116/141/116
f 110/131/110 109/130/109 116/141/116
f 110/131/110 117/142/117 118/135/118
f 115/143/115 122/156/122 123/144/123
f 117/142/117 116/141/116 123/144/123
f 117/142/117 124/145/124 125/146/125
f 119/136/119 118/135/118 125/146/125
f 119/136/119 126/147/126 127/148/127
f 120/137/120 127/148/127 128/149/128
f 126/147/126 125/146/125 132/151/132
f 126/147/126 133/152/133 134/153/134
f 128/149/128 127/148/127 134/153/134
f 122/156/122 129/159/129 130/157/130
f 124/145/124 123/144/123 130/157/130
f 124/145/124 131/158/131 132/151/132
f 129/159/129 136/170/136 137/160/137
f 131/158/131 130/157/130 137/160/137
f 131/158/131 138/161/138 139/162/139
f 133/152/133 132/151/132 139/162/139
f 133/152/133 140/163/140 141/164/141
f 135/154/135 134/153/134 141/164/141
f 140/163/140 148/174/148 149/167/149
f 141/164/141 149/167/149 150/168/150
f 136/170/136 144/182/144 145/171/145
f 138/161/138 137/160/137 145/171/145
f 138/161/138 146/172/146 147/173/147
f 140/163/140 139/162/139 147/173/147
f 146/172/146 145/171/145 152/175/152
f 146/172/146 153/176/153 154/177/154
f 148/174/148 147/173/147 154/177/154
f 148/174/148 155/178/155 156/179/156
f 149/167/149 156/179/156 157/180/157
f 144/182/144 151/185/151 152/175/152
f 156/179/156 163/190/163 164/183/164
f 151/185/151 158/198/158 159/186/159
f 153/176/153 152/175/152 159/186/159
f 153/176/153 160/187/160 161/188/161
f 155/178/155 154/177/154 161/188/161
f 155/178/155 162/189/162 163/190/163
f 160/187/160 159/186/159 166/191/166
f 160/187/160 167/192/167 168/193/168
f 162/189/162 161/188/161 168/193/168
f 162/189/162 169/194/169 170/195/170
f 163/190/163 170/195/170 171/196/171
f 158/198/158 165/526/165 166/191/166
f 170/199/170 177/212/177 178/200/178
f 165/203/165 172/218/172 173/204/173
f 167/206/167 166/205/166 173/204/173
f 167/206/167 174/207/174 175/208/175
f 169/210/169 168/209/168 175/208/175
f 169/210/169 176/211/176 177/212/177
f 174/207/174 181/220/181 182/213/182
f 176/211/176 175/208/175 182/213/182
f 176/211/176 183/214/183 184/215/184
f 177/212/177 184/215/184 185/216/185
f 172/218/172 179/223/179 180/219/180
f 174/207/174 173/204/173 180/219/180
f 179/223/179 186/234/186 187/224/187
f 181/220/181 180/219/180 187/224/187
f 181/220/181 188/225/188 189/226/189
f 183/214/183 182/213/182 189/226/189
f 184/215/184 183/214/183 190/227/190
f 184/215/184 191/228/191 192/222/192
f 188/225/188 195/236/195 196/229/196
f 190/227/190 189/226/189 196/229/196
f 190/227/190 197/230/197 198/231/198
f 191/228/191 198/231/198 199/232/199
f 186/234/186 193/239/193 194/235/194
f 188/225/188 187/224/187 194/235/194
f 193/239/193 200/250/200 201/240/201
f 195/236/195 194/235/194 201/240/201
f 195/236/195 202/241/202 203/242/203
f 197/230/197 196/229/196 203/242/203
f 197/230/197 204/243/204 205/244/205
f 198/231/198 205/244/205 206/238/206
f 204/243/204 203/242/203 210/245/210
f 204/243/204 211/246/211 212/247/212
f 205/244/205 212/247/212 213/248/213
f 200/250/200 207/253/207 208/251/208
f 202/241/202 201/240/201 208/251/208
f 202/241/202 209/252/209 210/245/210
f 207/253/207 214/262/214 215/254/215
f 209/252/209 208/251/208 215/254/215
f 209/252/209 216/255/216 217/256/217
f 211/246/211 210/245/210 217/256/217
f 211/246/211 218/257/218 219/258/219
f 213/248/213 212/247/212 219/258/219
f 218/257/218 223/3/223 224/5/224
f 219/258/219 224/5/224 225/7/225
f 214/262/214 1/9/1 221/11/221
f 215/254/215 221/11/221 2/13/2
f 216/255/216 2/13/2 222/1/222
f 218/257/218 217/256/217 222/1/222
f 450/263/450 227/277/227 233/264/233
f 450/263/450 234/265/234 235/266/235
f 448/271/448 447/268/447 229/270/229
f 226/273/226 448/271/448 230/272/230
f 449/275/449 226/273/226 231/274/231
f 449/275/449 232/276/232 233/264/233
f 232/276/232 239/285/239 240/278/240
f 233/264/233 240/278/240 241/279/241
f 235/266/235 234/265/234 241/279/241
f 229/270/229 236/282/236 237/283/237
f 230/272/230 237/283/237 238/284/238
f 231/274/231 238/284/238 239/285/239
f 236/282/236 243/287/243 244/288/244
f 237/283/237 244/288/244 245/289/245
f 239/285/239 238/284/238 245/289/245
f 239/285/239 246/290/246 247/291/247
f 240/278/240 247/291/247 248/292/248
f 242/280/242 241/279/241 248/292/248
f 247/291/247 246/290/246 253/294/253
f 247/291/247 254/295/254 255/296/255
f 249/293/249 248/292/248 255/296/255
f 243/287/243 250/299/250 251/300/251
f 244/288/244 251/300/251 252/301/252
f 245/289/245 252/301/252 253/294/253
f 250/299/250 257/309/257 258/302/258
f 252/301/252 251/300/251 258/302/258
f 252/301/252 259/303/259 260/304/260
f 254/295/254 253/294/253 260/304/260
f 254/295/254 261/305/261 262/306/262
f 256/297/256 255/296/255 262/306/262
f 261/305/261 269/317/269 270/310/270
f 263/307/263 262/306/262 270/310/270
f 257/309/257 265/313/265 266/314/266
f 258/302/258 266/314/266 267/315/267
f 259/303/259 267/315/267 268/316/268
f 261/305/261 260/304/260 268/316/268
f 265/313/265 272/325/272 273/318/273
f 266/314/266 273/318/273 274/319/274
f 267/315/267 274/319/274 275/320/275
f 269/317/269 268/316/268 275/320/275
f 269/317/269 276/321/276 277/322/277
f 271/311/271 270/310/270 277/322/277
f 276/321/276 283/333/283 284/326/284
f 278/323/278 277/322/277 284/326/284
f 272/325/272 279/329/279 280/330/280
f 273/318/273 280/330/280 281/331/281
f 274/319/274 281/331/281 282/332/282
f 276/321/276 275/320/275 282/332/282
f 280/330/280 287/341/287 288/334/288
f 281/331/281 288/334/288 289/335/289
f 282/332/282 289/335/289 290/336/290
f 283/333/283 290/336/290 291/337/291
f 285/327/285 284/326/284 291/337/291
f 280/330/280 279/329/279 286/340/286
f 292/338/292 291/337/291 298/342/298
f 286/340/286 293/345/293 294/346/294
f 287/341/287 294/346/294 295/347/295
f 288/334/288 295/347/295 296/348/296
f 290/336/290 289/335/289 296/348/296
f 290/336/290 297/349/297 298/342/298
f 295/347/295 302/357/302 303/350/303
f 297/349/297 296/348/296 303/350/303
f 297/349/297 304/351/304 305/352/305
f 299/343/299 298/342/298 305/352/305
f 293/345/293 300/355/300 301/356/301
f 294/346/294 301/356/301 302/357/302
f 300/355/300 307/359/307 308/360/308
f 301/356/301 308/360/308 309/361/309
f 302/357/302 309/361/309 310/362/310
f 304/351/304 303/350/303 310/362/310
f 304/351/304 311/363/311 312/364/312
f 306/353/306 305/352/305 312/364/312
f 309/361/309 316/373/316 317/366/317
f 311/363/311 310/362/310 317/366/317
f 311/363/311 318/367/318 319/368/319
f 313/365/313 312/364/312 319/368/319
f 308/360/308 307/359/307 314/371/314
f 308/360/308 315/372/315 316/373/316
f 314/371/314 321/375/321 322/376/322
f 315/372/315 322/376/322 323/377/323
f 316/373/316 323/377/323 324/378/324
f 317/366/317 324/378/324 325/379/325
f 318/367/318 325/379/325 326/380/326
f 320/369/320 319/368/319 326/380/326
f 325/379/325 324/378/324 331/382/331
f 325/379/325 332/383/332 333/384/333
f 327/381/327 326/380/326 333/384/333
f 321/375/321 328/387/328 329/388/329
f 322/376/322 329/388/329 330/389/330
f 323/377/323 330/389/330 331/382/331
f 329/388/329 328/387/328 335/391/335
f 329/388/329 336/392/336 337/393/337
f 330/389/330 337/393/337 338/394/338
f 332/383/332 331/382/331 338/394/338
f 332/383/332 339/395/339 340/396/340
f 334/385/334 333/384/333 340/396/340
f 338/394/338 345/405/345 346/398/346
f 339/395/339 346/398/346 347/399/347
f 341/397/341 340/396/340 347/399/347
f 335/391/335 342/402/342 343/403/343
f 336/392/336 343/403/343 344/404/344
f 337/393/337 344/404/344 345/405/345
f 343/403/343 342/402/342 349/406/349
f 343/403/343 350/407/350 351/408/351
f 344/404/344 351/408/351 352/409/352
f 346/398/346 345/405/345 352/409/352
f 346/398/346 353/410/353 354/411/354
f 348/400/348 347/399/347 354/411/354
f 353/410/353 360/421/360 361/414/361
f 355/412/355 354/411/354 361/414/361
f 349/406/349 356/417/356 357/418/357
f 351/408/351 350/407/350 357/418/357
f 351/408/351 358/419/358 359/420/359
f 353/410/353 352/409/352 359/420/359
f 357/418/357 364/429/364 365/422/365
f 358/419/358 365/422/365 366/423/366
f 360/421/360 359/420/359 366/423/366
f 360/421/360 367/424/367 368/425/368
f 362/415/362 361/414/361 368/425/368
f 356/417/356 363/428/363 364/429/364
f 369/426/369 368/425/368 375/430/375
f 363/428/363 370/433/370 371/434/371
f 364/429/364 371/434/371 372/435/372
f 365/422/365 372/435/372 373/436/373
f 367/424/367 366/423/366 373/436/373
f 367/424/367 374/437/374 375/430/375
f 371/434/371 378/445/378 379/438/379
f 372/435/372 379/438/379 380/439/380
f 374/437/374 373/436/373 380/439/380
f 374/437/374 381/440/381 382/441/382
f 376/431/376 375/430/375 382/441/382
f 370/433/370 377/444/377 378/445/378
f 383/442/383 382/441/382 389/446/389
f 377/444/377 384/449/384 385/450/385
f 378/445/378 385/450/385 386/451/386
f 379/438/379 386/451/386 387/452/387
f 381/440/381 380/439/380 387/452/387
f 381/440/381 388/453/388 389/446/389
f 386/451/386 393/461/393 394/454/394
f 388/453/388 387/452/387 394/454/394
f 388/453/388 395/455/395 396/456/396
f 390/447/390 389/446/389 396/456/396
f 384/449/384 391/459/391 392/460/392
f 385/450/385 392/460/392 393/461/393
f 391/462/391 398/464/398 399/465/399
f 393/467/393 392/466/392 399/465/399
f 393/467/393 400/468/400 401/469/401
f 395/471/395 394/470/394 401/469/401
f 395/471/395 402/472/402 403/473/403
f 397/475/397 396/474/396 403/473/403
f 400/468/400 407/484/407 408/477/408
f 402/472/402 401/469/401 408/477/408
f 402/472/402 409/478/409 410/479/410
f 404/476/404 403/473/403 410/479/410
f 398/464/398 405/482/405 406/483/406
f 400/468/400 399/465/399 406/483/406
f 405/482/405 412/486/412 413/487/413
f 406/483/406 413/487/413 414/488/414
f 407/484/407 414/488/414 415/489/415
f 409/478/409 408/477/408 415/489/415
f 409/478/409 416/490/416 417/491/417
f 411/480/411 410/479/410 417/491/417
f 416/490/416 415/489/415 422/493/422
f 416/490/416 423/494/423 424/495/424
f 418/492/418 417/491/417 424/495/424
f 412/486/412 419/498/419 420/499/420
f 413/487/413 420/499/420 421/500/421
f 414/488/414 421/500/421 422/493/422
f 419/498/419 426/508/426 427/501/427
f 421/500/421 420/499/420 427/501/427
f 421/500/421 428/502/428 429/503/429
f 423/494/423 422/493/422 429/503/429
f 423/494/423 430/504/430 431/505/431
f 425/496/425 424/495/424 431/505/431
f 430/504/430 437/516/437 438/509/438
f 432/506/432 431/505/431 438/509/438
f 427/501/427 426/508/426 433/512/433
f 428/502/428 427/501/427 434/513/434
f 428/502/428 435/514/435 436/515/436
f 430/504/430 429/503/429 436/515/436
f 433/512/433 440/524/440 441/517/441
f 434/513/434 441/517/441 442/518/442
f 435/514/435 442/518/442 443/519/443
f 437/516/437 436/515/436 443/519/443
f 437/516/437 444/520/444 445/521/445
f 439/510/439 438/509/438 445/521/445
f 445/521/445 444/520/444 227/277/227
f 446/522/446 445/521/445 450/263/450
f 440/524/440 447/268/447 448/271/448
f 442/518/442 441/517/441 448/271/448
f 443/519/443 442/518/442 226/273/226
f 444/520/444 443/519/443 449/275/449
f 242/280/242 10/25/10 3/20/3
f 249/293/249 17/35/17 10/25/10
f 256/297/256 24/39/24 17/35/17
f 263/307/263 31/51/31 24/39/24
f 271/311/271 38/55/38 31/51/31
f 278/323/278 45/66/45 38/55/38
f 285/327/285 52/71/52 45/66/45
f 292/338/292 59/82/59 52/71/52
f 299/343/299 66/94/66 59/82/59
f 306/353/306 73/98/73 66/94/66
f 313/365/313 80/108/80 73/98/73
f 320/369/320 87/113/87 80/108/80
f 327/381/327 94/124/94 87/113/87
f 334/385/334 101/129/101 94/124/94
f 341/397/341 108/140/108 101/129/101
f 348/400/348 115/143/115 108/140/108
f 355/412/355 122/156/122 115/143/115
f 362/415/362 129/159/129 122/156/122
f 369/426/369 136/170/136 129/159/129
f 376/431/376 144/182/144 136/170/136
f 383/442/383 151/185/151 144/182/144
f 390/447/390 158/198/158 151/185/151
f 397/457/397 165/526/165 158/198/158
f 404/476/404 172/218/172 165/203/165
f 411/480/411 179/223/179 172/218/172
f 418/492/418 186/234/186 179/223/179
f 425/496/425 193/239/193 186/234/186
f 432/506/432 200/250/200 193/239/193
f 439/510/439 207/253/207 200/250/200
f 446/522/446 214/262/214 207/253/207
f 228/267/228 1/9/1 214/262/214
f 235/266/235 3/20/3 1/9/1
